<svg width="39" height="39" viewBox="0 0 39 39" fill="none" xmlns="http://www.w3.org/2000/svg">
<path fill-rule="evenodd" clip-rule="evenodd" d="M22.1 19.3L19.5 16.7L17.6 18.6L17.4 18.8L16.9 19.3L19.5 21.9L22.1 19.3ZM30.9 19.5L28.3 16.9L25.7 19.5L28.3 22.1L30.9 19.5ZM15.1 21.2L12.5 23.8L19.5 30.8L26.5 23.8L24 21.2L19.5 25.7L15.1 21.2ZM10.6 16.9L8 19.5L10.6 22.1L13.2 19.5L10.6 16.9ZM15.1 17.6L19.6 13.1L24.1 17.6L26.7 15L19.7 8L12.7 15L15.1 17.6ZM19.5 39C8.7 39 0 30.3 0 19.5C0 8.7 8.7 0 19.5 0C30.3 0 39 8.7 39 19.5C39 30.3 30.3 39 19.5 39Z" fill="#681D7E"/>
</svg>
