<svg width="40" height="39" viewBox="0 0 40 39" fill="none" xmlns="http://www.w3.org/2000/svg">
<path fill-rule="evenodd" clip-rule="evenodd" d="M39.75 19.5C39.75 30.2696 31.0196 39 20.25 39C9.48045 39 0.75 30.2696 0.75 19.5C0.75 8.73045 9.48045 0 20.25 0C31.0196 0 39.75 8.73045 39.75 19.5ZM20.3215 13.1824L15.8686 17.6352L13.2776 15.0442L20.3215 8L27.3679 15.0465L24.7768 17.6375L20.3215 13.1824ZM11.3411 16.874L13.9321 19.465L11.341 22.0561L8.75 19.4651L11.3411 16.874ZM20.3253 25.6754L15.8724 21.2226L13.2776 23.8102L13.2812 23.8139L20.3253 30.8578L27.3717 23.8115L27.3729 23.8101L24.7805 21.2205L20.3253 25.6754ZM31.6801 19.465L29.089 22.0561L26.498 19.4651L29.0891 16.874L31.6801 19.465ZM22.8838 19.3222H22.8827L22.885 19.3234L22.8838 19.3249L20.2545 21.9541L17.6276 19.3272L17.624 19.3234L17.6276 19.3198L18.0882 18.8593L18.3113 18.636H18.3115L20.2545 16.6929L22.8838 19.3222Z" fill="white"/>
</svg>
