<svg width="39" height="39" viewBox="0 0 39 39" fill="none" xmlns="http://www.w3.org/2000/svg">
<path fill-rule="evenodd" clip-rule="evenodd" d="M29 28V20.8C29 16.8 26.9 15 24.1 15C21.9 15 20.5 16.3 20.3 17.1V15.1H16C16.1 16.2 16 28 16 28H20.3V21C20.3 20.6 20.3 20.2 20.4 19.9C20.7 19.1 21.3 18.3 22.5 18.3C24 18.3 24.7 19.5 24.7 21.2V28H29ZM12 13C13.2 13 14 12.1 14 11C14 9.9 13.2 9 12 9C10.8 9 10 9.9 10 11C10 12.1 10.8 13 12 13ZM10 15V28H14V15H10ZM19.5 39C8.7 39 0 30.3 0 19.5C0 8.7 8.7 0 19.5 0C30.3 0 39 8.7 39 19.5C39 30.3 30.3 39 19.5 39Z" fill="#6B747D"/>
</svg>
