<svg width="249" height="86" viewBox="0 0 249 86" fill="none" xmlns="http://www.w3.org/2000/svg">
<mask id="mask0" mask-type="alpha" maskUnits="userSpaceOnUse" x="0" y="0" width="86" height="86">
<path fill-rule="evenodd" clip-rule="evenodd" d="M0 0.514893H85.2173V85.6405H0V0.514893Z" fill="white"/>
</mask>
<g mask="url(#mask0)">
<path fill-rule="evenodd" clip-rule="evenodd" d="M42.6084 11.4109C25.1284 11.4109 10.9076 25.6163 10.9076 43.0774C10.9076 60.5385 25.1284 74.744 42.6084 74.744C60.0884 74.744 74.3098 60.5385 74.3098 43.0774C74.3098 25.6163 60.0884 11.4109 42.6084 11.4109M42.6084 85.6408C19.1142 85.6408 0 66.5467 0 43.0774C0 19.6082 19.1142 0.514648 42.6084 0.514648C66.1031 0.514648 85.2173 19.6082 85.2173 43.0774C85.2173 66.5467 66.1031 85.6408 42.6084 85.6408" fill="#FF5847"/>
</g>
<path fill-rule="evenodd" clip-rule="evenodd" d="M33.1628 43.0777L42.6083 52.513L52.0538 43.0777L42.6083 33.643L33.1628 43.0777ZM42.6083 65.6659C41.1617 65.6659 39.7745 65.0917 38.7516 64.0705L21.5933 46.9302C19.4637 44.8029 19.4637 41.3531 21.5933 39.2258L38.7516 22.0855C40.8818 19.9582 44.3343 19.9582 46.465 22.0855L63.6233 39.2258C65.7529 41.3531 65.7529 44.8029 63.6233 46.9302L46.465 64.0705C45.4422 65.0917 44.0549 65.6659 42.6083 65.6659V65.6659Z" fill="#FF5847"/>
<path fill-rule="evenodd" clip-rule="evenodd" d="M114.327 23.1738H97.4102V12.1416H145.531V23.1738H128.614V74.7445H114.327V23.1738Z" fill="white"/>
<path fill-rule="evenodd" clip-rule="evenodd" d="M158.817 66.9523C161.622 66.9523 163.973 66.2323 165.873 64.792C167.771 63.3516 168.721 61.3376 168.721 58.7504V54.869H163.813C160.132 54.869 157.268 55.3397 155.223 56.2806C153.177 57.2219 152.156 58.927 152.156 61.3963C152.156 63.1008 152.682 64.4536 153.733 65.4527C154.785 66.4522 156.479 66.9523 158.817 66.9523M155.048 75.7078C152.944 75.7078 150.972 75.4452 149.131 74.9194C147.291 74.3941 145.67 73.5774 144.267 72.4681C142.865 71.3599 141.754 69.9442 140.936 68.2217C140.117 66.5006 139.709 64.4428 139.709 62.0492C139.709 59.3647 140.293 57.0885 141.462 55.2197C142.63 53.3519 144.267 51.8353 146.371 50.6663C148.475 49.4994 150.986 48.6528 153.909 48.1275C156.83 47.6018 160.044 47.3391 163.55 47.3391H168.721V45.5007C168.721 42.758 168.209 40.6718 167.188 39.2402C166.165 37.8106 164.192 37.0948 161.271 37.0948C158.758 37.0948 156.902 37.6793 155.705 38.8462C154.507 40.0147 153.762 41.591 153.47 43.5747H141.462C141.638 40.8902 142.295 38.5548 143.434 36.5701C144.574 34.5859 146.048 32.9514 147.861 31.6665C149.671 30.3832 151.79 29.4341 154.215 28.8213C156.639 28.2085 159.255 27.9021 162.06 27.9021C164.865 27.9021 167.436 28.2085 169.774 28.8213C172.11 29.4341 174.156 30.4126 175.909 31.7541C177.603 33.0981 178.918 34.849 179.853 37.0078C180.787 39.1681 181.256 41.7944 181.256 44.8879V74.7443H168.897V69.2284C167.552 71.0973 165.814 72.6432 163.682 73.8694C161.548 75.095 158.671 75.7078 155.048 75.7078" fill="white"/>
<path fill-rule="evenodd" clip-rule="evenodd" d="M218.797 46.9017C218.563 43.3994 217.599 40.8168 215.905 39.1529C214.209 37.4896 211.842 36.6574 208.805 36.6574C205.941 36.6574 203.589 37.5483 201.749 39.328C199.908 41.1093 198.753 43.6332 198.286 46.9017H218.797ZM209.155 75.7081C205.706 75.7081 202.523 75.1823 199.601 74.1317C196.678 73.0807 194.167 71.5348 192.063 69.4908C189.901 67.5077 188.22 65.0848 187.023 62.2241C185.825 59.3645 185.227 56.0949 185.227 52.4175V51.7177C185.227 48.0985 185.825 44.8305 187.023 41.9111C188.22 38.9933 189.901 36.4828 192.063 34.3812C194.167 32.3388 196.65 30.7476 199.513 29.609C202.376 28.4714 205.474 27.9019 208.805 27.9019C211.784 27.9019 214.618 28.3545 217.307 29.2588C219.994 30.1646 222.361 31.5504 224.407 33.4177C226.451 35.2865 228.088 37.6945 229.315 40.6417C230.542 43.5894 231.155 47.1066 231.155 51.1919V54.6942H198.111C198.286 58.5467 199.352 61.5098 201.311 63.581C203.267 65.6538 206 66.6894 209.506 66.6894C212.486 66.6894 214.721 66.1065 216.211 64.938C217.701 63.7711 218.65 62.2241 219.06 60.2981H231.068C230.308 65.2593 228.044 69.0686 224.275 71.7237C220.506 74.3805 215.466 75.7081 209.155 75.7081V75.7081Z" fill="white"/>
<mask id="mask1" mask-type="alpha" maskUnits="userSpaceOnUse" x="0" y="0" width="249" height="86">
<path fill-rule="evenodd" clip-rule="evenodd" d="M0 85.6405H248.589V0.514893H0V85.6405Z" fill="white"/>
</mask>
<g mask="url(#mask1)">
<path fill-rule="evenodd" clip-rule="evenodd" d="M235.967 74.7443H248.588V8.20142H235.967V74.7443Z" fill="white"/>
</g>
</svg>
