<svg width="84" height="26" viewBox="0 0 84 26" fill="none" xmlns="http://www.w3.org/2000/svg">
<path fill-rule="evenodd" clip-rule="evenodd" d="M34.7221 7.45917H29.5703V4.16016H44.2245V7.45917H39.0729V22.8802H34.7221V7.45917Z" fill="white"/>
<path fill-rule="evenodd" clip-rule="evenodd" d="M48.226 20.3769C49.0777 20.3769 49.7918 20.1601 50.3686 19.7268C50.945 19.2932 51.2334 18.6873 51.2334 17.9089V16.7409H49.7431C48.6254 16.7409 47.7556 16.8826 47.1348 17.1655C46.5134 17.4491 46.2032 17.9618 46.2032 18.705C46.2032 19.2181 46.3628 19.625 46.6823 19.9256C47.0017 20.2262 47.5161 20.3769 48.226 20.3769ZM47.0814 23.0113C46.4427 23.0113 45.8439 22.9322 45.285 22.774C44.726 22.616 44.2336 22.3702 43.8078 22.0365C43.3819 21.7031 43.0446 21.2771 42.7962 20.7587C42.5476 20.2409 42.4238 19.6217 42.4238 18.9014C42.4238 18.0936 42.6008 17.4088 42.9558 16.8465C43.3106 16.2845 43.8078 15.828 44.4464 15.4764C45.0853 15.1252 45.848 14.8704 46.7355 14.7124C47.6227 14.5542 48.5987 14.4751 49.6632 14.4751H51.2334V13.9218C51.2334 13.0965 51.0781 12.469 50.768 12.0381C50.4574 11.6078 49.8583 11.3927 48.9713 11.3927C48.2082 11.3927 47.6447 11.5684 47.2811 11.9198C46.9175 12.2714 46.6909 12.7456 46.6024 13.3423H42.9558C43.0093 12.5345 43.209 11.8319 43.5549 11.2347C43.9008 10.6377 44.3488 10.1458 44.8992 9.75926C45.4486 9.37292 46.0923 9.08719 46.8288 8.90299C47.565 8.71856 48.3592 8.62646 49.2109 8.62646C50.0625 8.62646 50.8434 8.71856 51.5531 8.90299C52.2626 9.08719 52.8839 9.38166 53.4163 9.78547C53.9307 10.1898 54.3298 10.7168 54.6137 11.3665C54.8976 12.0166 55.04 12.8067 55.04 13.7376V22.7216H51.2869V21.0617C50.8784 21.624 50.3507 22.0892 49.7033 22.4581C49.0553 22.8269 48.1814 23.0113 47.0814 23.0113Z" fill="white"/>
<path fill-rule="evenodd" clip-rule="evenodd" d="M66.4399 14.3433C66.3688 13.2897 66.0761 12.5125 65.5615 12.0119C65.0466 11.5112 64.3281 11.2609 63.4058 11.2609C62.5362 11.2609 61.8222 11.5289 61.2632 12.0645C60.7042 12.6003 60.3535 13.36 60.2118 14.3433H66.4399ZM63.5122 23.0113C62.4651 23.0113 61.4979 22.8531 60.6109 22.5369C59.7237 22.2207 58.9608 21.7558 58.3221 21.1406C57.6653 20.5438 57.155 19.8149 56.7917 18.9539C56.4276 18.0936 56.2461 17.1098 56.2461 16.0032V15.7926C56.2461 14.7035 56.4276 13.7202 56.7917 12.8417C57.155 11.9637 57.6653 11.2083 58.3221 10.5759C58.9608 9.96117 59.7149 9.4825 60.5845 9.14008C61.4536 8.79767 62.3942 8.62646 63.4058 8.62646C64.3107 8.62646 65.1712 8.76249 65.9876 9.03476C66.8035 9.30728 67.522 9.72408 68.1435 10.2861C68.7643 10.8484 69.2612 11.5731 69.6341 12.4596C70.0065 13.3468 70.1928 14.4052 70.1928 15.6344V16.6883H60.1586C60.2118 17.8475 60.5353 18.739 61.1301 19.3624C61.7241 19.9861 62.5538 20.2978 63.6188 20.2978C64.5237 20.2978 65.2024 20.1223 65.6548 19.7707C66.1071 19.4196 66.3953 18.9539 66.5198 18.3744H70.1663C69.9354 19.8675 69.2481 21.0135 68.1037 21.8127C66.959 22.612 65.4286 23.0113 63.5122 23.0113Z" fill="white"/>
<mask id="mask0" mask-type="alpha" maskUnits="userSpaceOnUse" x="0" y="0" width="76" height="27">
<path fill-rule="evenodd" clip-rule="evenodd" d="M0 26.0001H75.4868V0.385254H0V26.0001Z" fill="white"/>
</mask>
<g mask="url(#mask0)">
<path fill-rule="evenodd" clip-rule="evenodd" d="M71.6543 22.7214H75.4869V2.69824H71.6543V22.7214Z" fill="white"/>
<path fill-rule="evenodd" clip-rule="evenodd" d="M12.9385 3.66392C7.63061 3.66392 3.31205 7.93865 3.31205 13.1929C3.31205 18.4469 7.63061 22.7214 12.9385 22.7214C18.2467 22.7214 22.5652 18.4469 22.5652 13.1929C22.5652 7.93865 18.2467 3.66392 12.9385 3.66392ZM12.9385 26.0001C5.80437 26.0001 0 20.2549 0 13.1929C0 6.1307 5.80437 0.385254 12.9385 0.385254C20.0729 0.385254 25.8773 6.1307 25.8773 13.1929C25.8773 20.2549 20.0729 26.0001 12.9385 26.0001Z" fill="white"/>
<path fill-rule="evenodd" clip-rule="evenodd" d="M10.0705 13.1928L12.9388 16.0318L15.8071 13.1928L12.9388 10.3539L10.0705 13.1928ZM12.9388 19.9896C12.4996 19.9896 12.0783 19.817 11.7677 19.5095L6.55733 14.3521C5.91058 13.7116 5.91058 12.6738 6.55733 12.0336L11.7677 6.87614C12.4144 6.23595 13.4632 6.23595 14.1099 6.87614L19.3203 12.0336C19.9668 12.6738 19.9668 13.7116 19.3203 14.3521L14.1099 19.5095C13.7993 19.817 13.378 19.9896 12.9388 19.9896Z" fill="white"/>
</g>
</svg>
