<svg width="179" height="179" viewBox="0 0 179 179" fill="none" xmlns="http://www.w3.org/2000/svg">
<mask id="mask0" mask-type="alpha" maskUnits="userSpaceOnUse" x="22" y="22" width="136" height="136">
<path fill-rule="evenodd" clip-rule="evenodd" d="M22 22.0005H157.43V157.436H22V22.0005Z" fill="white"/>
</mask>
<g mask="url(#mask0)">
<path fill-rule="evenodd" clip-rule="evenodd" d="M87.1119 131.64H92.3439V125.063H87.1119V131.64ZM60.9729 99.434H79.5489V93.083H60.9729V99.434ZM92.6689 86.631H105.393C105.591 84.398 105.775 82.338 105.99 79.921C108.132 79.793 110.204 79.668 112.472 79.532C112.627 77.685 112.761 76.072 112.926 74.09H118.404C118.586 75.684 118.784 77.426 119.021 79.504C120.791 79.636 122.536 79.767 124.487 79.913V86.496H113.064V105.516C114.793 105.64 116.524 105.765 118.452 105.904C118.648 108.403 118.828 110.677 119 112.947C114.544 112.886 110.092 112.831 105.642 112.775V93.048H99.9639C99.7609 95.434 99.5859 97.499 99.4069 99.582C97.0529 99.692 95.1119 99.783 92.9219 99.886C92.7769 101.889 92.6519 103.627 92.5189 105.465C90.4779 105.657 88.7389 105.822 87.0889 105.977V112.633H105.785V118.443H118.565C118.671 116.391 118.761 114.605 118.853 112.818C120.647 112.73 122.441 112.641 124.482 112.542C124.624 110.431 124.754 108.481 124.927 105.879H144.626C144.626 103.436 144.626 101.639 144.63 99.838C144.636 99.832 144.491 99.997 144.491 99.997H150.497V112.334C148.828 112.537 147.102 112.747 144.875 113.018V124.64H131.661L131.798 124.787C131.748 122.746 131.697 120.704 131.646 118.662H137.41V113.062H131.788V118.804H124.658V124.787L124.796 124.64H99.6509V137.785L99.7969 137.648H93.0639V144.787H99.7969L99.6509 144.65V157.391H86.9279C86.8089 155.373 86.6939 153.431 86.5569 151.103H80.0289C79.8599 153.025 79.6779 155.1 79.4729 157.436H73.9589V144.888H86.4329V137.839H74.0919V124.925C75.7859 124.798 77.5219 124.668 79.4819 124.519V113.108C77.8119 112.898 76.0809 112.68 74.0359 112.423C73.8519 110.382 73.6639 108.304 73.4459 105.886H54.9659V92.953C52.1879 92.831 49.9289 92.731 47.6709 92.631L47.8119 92.774V80.021C45.7309 79.823 43.9979 79.658 42.0059 79.469V73.949H54.3489C54.5559 75.642 54.7659 77.369 55.0249 79.488C56.9329 79.59 58.8639 79.692 60.7959 79.795L60.6579 79.648V86.378H66.7979V79.648L66.6599 79.795H73.4009C73.6009 82.038 73.7849 84.114 73.9919 86.444H79.5029V74.076C77.7699 73.874 76.0369 73.671 74.0199 73.435V60.958H79.3289C79.5389 62.603 79.7609 64.345 80.0239 66.4H86.5269C86.6429 64.747 86.7559 63.134 86.9099 60.947C88.5799 60.866 90.3139 60.782 92.5749 60.672V73.51C95.1189 73.65 97.1969 73.763 99.4819 73.888V79.41C97.5219 79.575 95.4449 79.75 92.8099 79.972V86.773H87.0469V92.373H92.6689V86.631Z" fill="#FF5847"/>
<path fill-rule="evenodd" clip-rule="evenodd" d="M29.0475 60.375H60.5695V28.918H29.0475V60.375ZM22.7285 66.531H66.5825V22.944H22.7285V66.531Z" fill="#FF5847"/>
<path fill-rule="evenodd" clip-rule="evenodd" d="M119.104 60.345H150.668V28.954H119.104V60.345ZM112.908 66.481H156.764V22.733H112.908V66.481Z" fill="#FF5847"/>
<path fill-rule="evenodd" clip-rule="evenodd" d="M29.0674 150.682H60.3834V119.083H29.0674V150.682ZM22.9434 156.544H66.7164V112.855H22.9434V156.544Z" fill="#FF5847"/>
<path fill-rule="evenodd" clip-rule="evenodd" d="M47.669 92.6316V105.377H34.926C34.802 103.635 34.679 101.898 34.541 99.9526H29.119C28.911 101.607 28.692 103.349 28.435 105.403H22V73.9666H34.489C34.567 75.6386 34.648 77.3516 34.744 79.3776C32.735 79.5926 30.994 79.7786 28.998 79.9936V86.6136H41.319C41.562 88.6526 41.767 90.3806 42.019 92.4966C43.944 92.5886 45.877 92.6816 47.811 92.7746L47.669 92.6316Z" fill="#FF5847"/>
<path fill-rule="evenodd" clip-rule="evenodd" d="M150.643 131.662V137.405C152.997 137.591 155.073 137.755 157.43 137.94V150.641H137.659L137.795 150.788C137.699 148.861 137.601 146.935 137.506 145.051H131.657V150.788L131.793 150.641H124.659L124.796 150.788V144.647H118.656L118.803 144.785V137.876H131.47C131.602 135.494 131.707 133.576 131.813 131.659L131.67 131.801C138.041 131.802 144.414 131.803 150.785 131.804L150.643 131.662Z" fill="#FF5847"/>
<path fill-rule="evenodd" clip-rule="evenodd" d="M79.6719 28.7995H92.3799C92.5949 26.3885 92.7769 24.3255 92.9849 22.0005H99.5619C99.6599 24.1015 99.7519 26.0445 99.8589 28.3085C101.626 28.5315 103.365 28.7505 105.416 29.0085V41.6695H92.9529V47.4125C94.9589 47.5785 97.0309 47.7495 99.6379 47.9655V54.7785L99.7799 54.6365H86.9279V42.0715C84.4009 41.8505 82.3479 41.6715 79.8139 41.4495V28.6575L79.6719 28.7995Z" fill="#FF5847"/>
<path fill-rule="evenodd" clip-rule="evenodd" d="M150.645 79.6627V86.3887C153.018 86.5857 155.085 86.7587 157.43 86.9547V92.7027H144.976C144.796 95.4467 144.649 97.7157 144.496 99.9897C144.49 99.9967 144.635 99.8317 144.629 99.8377C142.501 99.8437 140.378 99.8437 137.945 99.8437C137.798 97.2857 137.679 95.2117 137.551 92.9687C135.65 92.8137 134.03 92.6827 132.068 92.5227V79.8057H150.788L150.645 79.6627Z" fill="#FF5847"/>
<path fill-rule="evenodd" clip-rule="evenodd" d="M124.66 150.64V157.399H106.014V150.877C108.119 150.782 110.065 150.693 112.331 150.589C112.551 148.806 112.765 147.069 113.047 144.785H118.805L118.657 144.647V150.787H124.798L124.66 150.64Z" fill="#FF5847"/>
<path fill-rule="evenodd" clip-rule="evenodd" d="M150.787 131.803V119.085H157.409V131.661H150.645L150.787 131.803Z" fill="#FF5847"/>
<path fill-rule="evenodd" clip-rule="evenodd" d="M99.6387 54.778H105.402V66.387H99.7817V54.636L99.6387 54.778Z" fill="#FF5847"/>
<path fill-rule="evenodd" clip-rule="evenodd" d="M131.813 131.659H124.793V124.64L124.656 124.787H131.796L131.659 124.64L131.67 131.801L131.813 131.659Z" fill="#FF5847"/>
<path fill-rule="evenodd" clip-rule="evenodd" d="M99.6504 137.785H105.397V144.65H99.6504L99.7964 144.787V137.648L99.6504 137.785Z" fill="#FF5847"/>
<path fill-rule="evenodd" clip-rule="evenodd" d="M137.66 150.64V157.377H131.795V150.64L131.658 150.787H137.797L137.66 150.64Z" fill="#FF5847"/>
<path fill-rule="evenodd" clip-rule="evenodd" d="M118.955 99.444H124.534V93.082H118.955V99.444Z" fill="#FF5847"/>
<path fill-rule="evenodd" clip-rule="evenodd" d="M150.788 79.8053V74.0583H157.404V79.6623C155.147 79.6623 152.896 79.6623 150.645 79.6623L150.788 79.8053Z" fill="#FF5847"/>
<path fill-rule="evenodd" clip-rule="evenodd" d="M79.8154 28.6574H74.0684V22.0404H79.6724C79.6724 24.2984 79.6724 26.5484 79.6734 28.7994L79.8154 28.6574Z" fill="#FF5847"/>
<path fill-rule="evenodd" clip-rule="evenodd" d="M60.7942 79.7946V74.0516H66.6582V79.7946L66.7962 79.6476H60.6562L60.7942 79.7946Z" fill="#FF5847"/>
<path fill-rule="evenodd" clip-rule="evenodd" d="M35.2656 53.9241H54.0266V35.1541H35.2656V53.9241Z" fill="#FF5847"/>
<path fill-rule="evenodd" clip-rule="evenodd" d="M125.387 54.124H144.243V35.304H125.387V54.124Z" fill="#FF5847"/>
<path fill-rule="evenodd" clip-rule="evenodd" d="M35.2871 144.238H54.1141V125.37H35.2871V144.238Z" fill="#FF5847"/>
</g>
<path d="M1 163V178H16" stroke="#5661E8" stroke-width="2" stroke-linecap="round" stroke-linejoin="round"/>
<path d="M16 1H1V16" stroke="#5661E8" stroke-width="2" stroke-linecap="round" stroke-linejoin="round"/>
<path d="M178 16V1H163" stroke="#5661E8" stroke-width="2" stroke-linecap="round" stroke-linejoin="round"/>
<path d="M163 178H178V163" stroke="#5661E8" stroke-width="2" stroke-linecap="round" stroke-linejoin="round"/>
</svg>
