<svg width="40" height="39" viewBox="0 0 40 39" fill="none" xmlns="http://www.w3.org/2000/svg">
<path fill-rule="evenodd" clip-rule="evenodd" d="M39.5 19.5C39.5 30.2696 30.7696 39 20 39C9.23045 39 0.5 30.2696 0.5 19.5C0.5 8.73045 9.23045 0 20 0C30.7696 0 39.5 8.73045 39.5 19.5ZM27.7619 14.4347C28.5738 14.3414 29.348 14.1323 30.0678 13.8232C29.5298 14.6029 28.8493 15.2875 28.0642 15.8355C28.072 16.0019 28.0759 16.1698 28.0759 16.3383C28.0759 21.4766 24.0377 27.4009 16.6534 27.4009C14.3864 27.4009 12.2757 26.7575 10.5 25.6539C10.8135 25.6902 11.1338 25.7084 11.4572 25.7084C13.3386 25.7084 15.0694 25.0871 16.4436 24.0441C14.6864 24.0125 13.2041 22.8883 12.6934 21.344C12.9383 21.3893 13.1895 21.4133 13.4487 21.4133C13.8143 21.4133 14.1697 21.3661 14.5062 21.2768C12.67 20.9198 11.2856 19.3486 11.2856 17.4648C11.2856 17.4485 11.2856 17.432 11.2859 17.4155C11.8269 17.7074 12.4464 17.8823 13.1041 17.9023C12.0275 17.2052 11.3182 16.0147 11.3182 14.6661C11.3182 13.9537 11.5164 13.2854 11.8619 12.7113C13.8421 15.0642 16.8004 16.612 20.1369 16.7741C20.068 16.4894 20.0324 16.1927 20.0324 15.888C20.0324 13.7412 21.8303 12 24.047 12C25.2023 12 26.2457 12.472 26.978 13.2274C27.8921 13.0531 28.7517 12.7298 29.5274 12.2842C29.2271 13.1926 28.5909 13.9537 27.7619 14.4347Z" fill="white"/>
</svg>
