<svg width="39" height="39" viewBox="0 0 39 39" fill="none" xmlns="http://www.w3.org/2000/svg">
<path fill-rule="evenodd" clip-rule="evenodd" d="M29.6 13.8C28.9 14.1 28.1 14.3 27.3 14.4C28.1 13.9 28.8 13.2 29.1 12.2C28.3 12.6 27.5 13 26.6 13.1C25.9 12.3 24.8 11.9 23.7 11.9C21.5 11.9 19.7 13.6 19.7 15.8C19.7 16.1 19.7 16.4 19.8 16.7C16.5 16.5 13.5 15 11.5 12.6C11.2 13.2 11 13.8 11 14.6C11 15.9 11.7 17.1 12.8 17.8C12.1 17.8 11.5 17.6 11 17.3C11 19.2 12.4 20.8 14.2 21.1C13.9 21.2 13.5 21.2 13.1 21.2C12.8 21.2 12.6 21.2 12.3 21.1C12.8 22.6 14.3 23.8 16.1 23.8C14.7 24.8 13 25.5 11.1 25.5C10.8 25.5 10.5 25.5 10.1 25.4C11.9 26.5 14 27.1 16.3 27.1C23.7 27.1 27.7 21.2 27.7 16C27.7 15.8 27.7 15.7 27.7 15.5C28.3 15.3 29 14.6 29.6 13.8ZM19.5 39C8.7 39 0 30.3 0 19.5C0 8.7 8.7 0 19.5 0C30.3 0 39 8.7 39 19.5C39 30.3 30.3 39 19.5 39Z" fill="#681D7E"/>
</svg>
