<svg width="39" height="39" viewBox="0 0 39 39" fill="none" xmlns="http://www.w3.org/2000/svg">
<path fill-rule="evenodd" clip-rule="evenodd" d="M19.8 21.9C19.4 20.7 18.1 19.8 16.4 20C14.3 20.2 12.4 22 13.2 24.2C14.4 27.6 21.1 25.8 19.8 21.9ZM16.8 22.6C17.1 23.1 17.7 22.7 17.6 22.4C17.5 21.9 16.7 21.9 16.8 22.6ZM15.7 24.6C16.8 24.3 17 22.2 15.3 22.6C13.8 23 14.1 25 15.7 24.6ZM28 16.2C27.8 14.9 26.6 13.8 25 14C24.6 14 24 14 24 14.7C24 15.7 25.1 15.1 25.8 15.4C26.2 15.6 26.6 16.1 26.6 16.6C26.7 17.4 26.3 18 27.2 18C27.8 18 28.1 17.2 28 16.2ZM24.7 18.7C25 17.8 25.3 16.7 24.7 16.1C23.4 14.7 20.5 16.1 19.2 16.2C19.8 14.4 19.1 12.5 16.8 13.1C14.6 13.6 13 14.7 11.5 16.2C9.9 17.7 8.3 19.5 8.1 21.7C7.8 24.3 9.6 25.7 11.3 26.6C16.4 29.3 24.5 27.8 27.2 24.2C27.6 23.7 28 22.9 28 22.3C28.2 20 26.3 19.5 24.7 18.7ZM23 24.5C21.6 26 18.7 27 15.7 26.8C13.2 26.6 9.7 25.2 10.3 22.2C10.6 20.9 11.7 20 12.7 19.4C13.9 18.7 15.1 18.4 16.8 18.3C19.9 18.1 23.9 19.2 23.9 22.2C24 23.1 23.5 24 23 24.5ZM31 16.2C30.7 13 27.9 10.5 24.1 11C23.6 11.1 23.1 11.1 23 11.6C22.8 12.9 24.2 12.5 24.9 12.5C27.1 12.5 29.4 14.3 29.4 16.8C29.4 17.7 28.7 19.1 30 19C30.9 18.9 31.1 17.5 31 16.2ZM19.5 39C8.7 39 0 30.3 0 19.5C0 8.7 8.7 0 19.5 0C30.3 0 39 8.7 39 19.5C39 30.3 30.3 39 19.5 39Z" fill="#681D7E"/>
</svg>
