<svg width="39" height="39" viewBox="0 0 39 39" fill="none" xmlns="http://www.w3.org/2000/svg">
<path fill-rule="evenodd" clip-rule="evenodd" d="M29 14.2V12H21.9L19.5 20.8H19.4L17.1 12H10V14.2H10.7C11 14.2 11.4 14.6 11.4 14.9V24.3C11.4 24.6 11 24.9 10.7 24.9H10V27.1H15.7V24.9H14.3V15H14.4L17.7 27.1H20.3L23.6 15H23.7V24.9H22.3V27.1H29.1V24.9H28.3C28 24.9 27.6 24.5 27.6 24.3V14.9C27.6 14.6 28 14.2 28.3 14.2H29ZM19.5 39C8.7 39 0 30.3 0 19.5C0 8.7 8.7 0 19.5 0C30.3 0 39 8.7 39 19.5C39 30.3 30.3 39 19.5 39Z" fill="#6B747D"/>
</svg>
