<svg width="39" height="39" viewBox="0 0 39 39" fill="none" xmlns="http://www.w3.org/2000/svg">
<path fill-rule="evenodd" clip-rule="evenodd" d="M26.5 10.2L7.9 17.5C7.9 17.5 7 17.8 7.1 18.4C7.2 19 7.9 19.2 7.9 19.2L12.6 20.8C12.6 20.8 14 25.4 14.3 26.3C14.6 27.2 14.8 27.2 14.8 27.2C15.1 27.3 15.3 27.1 15.3 27.1L18.3 24.4L23 28C24.3 28.6 24.7 27.4 24.7 27.4L28 10.6C28 9.5 26.5 10.2 26.5 10.2ZM23.2 25.9L18.1 22.1L16.5 23.5L16.8 20.5L23.5 14.5L14.3 19.6L10.2 18.2L25.7 12.1L23.2 25.9ZM19.5 39C8.7 39 0 30.3 0 19.5C0 8.7 8.7 0 19.5 0C30.3 0 39 8.7 39 19.5C39 30.3 30.3 39 19.5 39Z" fill="#6B747D"/>
</svg>
