<svg width="39" height="39" viewBox="0 0 39 39" fill="none" xmlns="http://www.w3.org/2000/svg">
<path fill-rule="evenodd" clip-rule="evenodd" d="M27.9 17.9C25.6 19.5 23.8 20.7 22.6 21.5C22.2 21.8 21.9 22 21.6 22.2C21.3 22.4 21 22.5 20.6 22.7C20.2 22.9 19.8 23 19.4 23C19 23 18.7 22.9 18.2 22.7C17.8 22.5 17.4 22.4 17.2 22.2C16.9 22 16.6 21.8 16.2 21.5C15.2 20.8 13.5 19.6 10.9 17.9C10.5 17.6 10.1 17.3 9.8 17V25.3C9.8 25.8 10 26.2 10.3 26.5C10.6 26.8 11 27 11.5 27H27.1C27.6 27 28 26.8 28.3 26.5C28.6 26.2 28.8 25.8 28.8 25.3V17C28.7 17.3 28.3 17.6 27.9 17.9ZM11.8 16.4C12 16.6 12.8 17 14 17.8C15.2 18.6 16.1 19.2 16.8 19.6C16.9 19.6 17 19.7 17.3 19.9C17.5 20.1 17.7 20.2 17.9 20.3C18.1 20.4 18.2 20.5 18.5 20.6C18.7 20.7 18.9 20.8 19.1 20.9C19.3 21 19.5 21 19.6 21C19.8 21 19.9 21 20.1 20.9C20.3 20.8 20.5 20.7 20.7 20.6C20.9 20.5 21.1 20.4 21.3 20.3C21.5 20.2 21.6 20.1 21.9 19.9C22.1 19.7 22.3 19.6 22.4 19.6C23.1 19.2 24.7 18.1 27.4 16.3C27.9 16 28.3 15.5 28.7 15.1C29 14.6 29.2 14.1 29.2 13.6C29.2 13.2 29 12.8 28.7 12.5C28.4 12.2 28 12 27.5 12H11.9C11.4 12 10.9 12.2 10.6 12.5C10.3 12.8 10.2 13.3 10.2 13.8C10.2 14.2 10.4 14.7 10.8 15.2C11 15.7 11.4 16.1 11.8 16.4ZM19.5 39C8.7 39 0 30.3 0 19.5C0 8.7 8.7 0 19.5 0C30.3 0 39 8.7 39 19.5C39 30.3 30.3 39 19.5 39Z" fill="#6B747D"/>
</svg>
