<svg width="39" height="39" viewBox="0 0 39 39" fill="none" xmlns="http://www.w3.org/2000/svg">
<path fill-rule="evenodd" clip-rule="evenodd" d="M27.8 7C26.8 7 25.9 7.7 25.6 8.6L21 7.4C20.9 7.4 20.9 7.4 20.8 7.4C20.6 7.4 20.4 7.6 20.4 7.8L18.6 13.7C15.6 13.8 12.9 14.6 10.9 16C10.4 15.5 9.69999 15.2 8.89999 15.2C7.29999 15.2 5.89999 16.6 5.89999 18.3C5.89999 19.4 6.49999 20.4 7.29999 21C7.29999 21.3 7.20001 21.6 7.20001 21.9C7.20001 24.2 8.60001 26.3 10.7 27.7C12.8 29.2 15.7 30 18.8 30C22 30 24.8 29.1 26.9 27.7C29 26.2 30.4 24.2 30.4 21.9C30.4 21.6 30.4 21.3 30.3 21C31.2 20.5 31.8 19.5 31.8 18.3C31.8 16.6 30.5 15.2 28.8 15.2C28 15.2 27.3 15.5 26.8 16C24.9 14.7 22.3 13.8 19.4 13.7L20.9 8.6L25 9.6C25 11 26.1 12.1 27.4 12.1C28.7 12.1 29.8 10.9 29.8 9.5C30.2 8.2 29.2 7 27.8 7ZM27.8 8.1C28.6 8.1 29.2 8.8 29.2 9.6C29.2 10.4 28.6 11.1 27.8 11.1C27 11.1 26.4 10.4 26.4 9.6C26.4 8.8 27 8.1 27.8 8.1ZM19 14.7C22 14.7 24.7 15.5 26.6 16.9C28.5 18.2 29.6 20 29.6 21.9C29.6 23.8 28.5 25.6 26.6 26.9C24.7 28.2 22 29.1 19 29.1C16 29.1 13.3 28.3 11.4 26.9C9.49999 25.6 8.29999 23.8 8.29999 21.9C8.29999 20 9.39999 18.3 11.4 16.9C13.3 15.5 16 14.7 19 14.7ZM9 16.2C9.4 16.2 9.80001 16.3 10.1 16.6C9.00001 17.5 8.20001 18.6 7.70001 19.9C7.30001 19.5 7 19 7 18.3C7 17.1 7.9 16.2 9 16.2ZM29 16.2C30.1 16.2 31 17.1 31 18.3C31 19 30.7 19.6 30.2 19.9C29.8 18.7 29 17.5 27.9 16.6C28.2 16.3 28.6 16.2 29 16.2ZM15.1 18.4C14.1 18.4 13.3 19.3 13.3 20.3C13.3 21.3 14.1 22.2 15.1 22.2C16.1 22.2 16.9 21.3 16.9 20.3C16.9 19.3 16.1 18.4 15.1 18.4ZM22.9 18.4C21.9 18.4 21.1 19.2 21.1 20.3C21.1 21.3 21.9 22.2 22.9 22.2C23.9 22.2 24.7 21.3 24.7 20.3C24.7 19.3 23.9 18.4 22.9 18.4ZM15.1 24.8C14.8 24.9 14.6 25.1 14.6 25.4C14.6 25.5 14.7 25.6 14.7 25.7C15.8 26.9 17.5 27.1 18.8 27.1C18.8 27.1 18.8 27.1 18.9 27.1C20.2 27.1 21.9 26.9 23.1 25.7C23.3 25.5 23.3 25.2 23.1 25C23 24.9 22.8 24.8 22.7 24.8C22.6 24.8 22.5 24.9 22.4 25C21.6 25.8 20.2 26 19 26.1H18.9C17.7 26.1 16.3 25.9 15.5 25C15.4 24.9 15.3 24.8 15.1 24.8ZM19.5 39C8.7 39 0 30.3 0 19.5C0 8.7 8.7 0 19.5 0C30.3 0 39 8.7 39 19.5C39 30.3 30.3 39 19.5 39Z" fill="#6B747D"/>
</svg>
