<svg width="17" height="17" viewBox="0 0 17 17" fill="none" xmlns="http://www.w3.org/2000/svg">
<path fill-rule="evenodd" clip-rule="evenodd" d="M8.5 0C3.81312 0 0 3.81312 0 8.5C0 13.1869 3.81312 17 8.5 17C13.1869 17 17 13.1869 17 8.5C17 3.81312 13.1869 0 8.5 0ZM1.63014 8.5C1.63014 7.97999 1.69022 7.47371 1.80014 6.9863H3.3313C3.24956 7.48652 3.20322 7.99838 3.20322 8.52189C3.20322 9.03026 3.2477 9.52699 3.32571 10.0137H1.80014C1.69022 9.52629 1.63014 9.02001 1.63014 8.5ZM4.98767 6.9863C4.88754 7.48349 4.83351 7.99605 4.83351 8.52189C4.83351 9.03492 4.88358 9.53234 4.97603 10.0137H7.68485V6.9863H4.98767ZM9.31507 2.57631C10.2661 3.35575 10.9983 4.29914 11.4825 5.3564H9.31507V2.57631ZM7.68492 5.35616V2.57189C6.73222 3.35179 6.00076 4.29774 5.51614 5.35616H7.68492ZM7.685 11.6438V14.4353C6.71041 13.6494 5.97405 12.7055 5.49293 11.6438H7.685ZM9.31507 11.6438V14.4311C10.288 13.6456 11.0258 12.7046 11.5064 11.6438H9.31507ZM9.31507 6.9863H12.0148C12.1149 7.48326 12.1664 7.99629 12.1664 8.52189C12.1664 9.03469 12.1177 9.53258 12.0251 10.0137H9.31507V6.9863ZM15.1996 6.9863H13.6684C13.7501 7.48652 13.7965 7.99838 13.7962 8.52189C13.7962 9.03003 13.7518 9.52699 13.6738 10.0137H15.1996C15.3095 9.52629 15.3696 9.02001 15.3696 8.5C15.3696 7.97999 15.3097 7.47371 15.1996 6.9863ZM14.6053 5.35616H13.2485C12.8354 4.21204 12.1948 3.16386 11.3494 2.25145C12.7506 2.89303 13.8996 3.99174 14.6053 5.35616ZM3.75169 5.35616C4.16482 4.21204 4.80546 3.16386 5.6508 2.25145C4.24935 2.89303 3.10034 3.99174 2.39495 5.35616H3.75169ZM2.3947 11.6438H3.74352C4.15548 12.7854 4.79636 13.8324 5.6431 14.7453C4.24514 14.1032 3.09915 13.0062 2.3947 11.6438ZM13.2565 11.6438C12.8447 12.7854 12.2039 13.8324 11.3569 14.7453C12.7548 14.1032 13.9008 13.0062 14.6053 11.6438H13.2565Z" fill="#681D7E"/>
</svg>
