<svg width="17" height="17" viewBox="0 0 17 17" fill="none" xmlns="http://www.w3.org/2000/svg">
<path fill-rule="evenodd" clip-rule="evenodd" d="M8.5 8.5C10.8375 8.5 12.75 6.5875 12.75 4.25C12.75 1.9125 10.8375 0 8.5 0C6.1625 0 4.25 1.9125 4.25 4.25C4.25 6.5875 6.1625 8.5 8.5 8.5Z" fill="#681D7E"/>
<path fill-rule="evenodd" clip-rule="evenodd" d="M17 16.1501C17 16.6176 16.6175 17.0001 16.15 17.0001H0.85C0.3825 17.0001 0 16.6176 0 16.1501V13.5363C0 11.2201 1.87 9.3501 4.18625 9.3501H4.675C5.78 10.1788 7.0975 10.6251 8.5 10.6251C9.9025 10.6251 11.22 10.1788 12.325 9.3501H12.8138C15.13 9.3501 17 11.2201 17 13.5363V16.1501Z" fill="#681D7E"/>
</svg>
