<svg width="72" height="72" viewBox="0 0 72 72" fill="none" xmlns="http://www.w3.org/2000/svg">
<rect width="72" height="72" rx="8" fill="#5661E8"/>
<path opacity="0.44" d="M41.0996 53C45.794 53 49.5996 49.1944 49.5996 44.5C49.5996 39.8056 45.794 36 41.0996 36C36.4052 36 32.5996 39.8056 32.5996 44.5C32.5996 49.1944 36.4052 53 41.0996 53Z" fill="white"/>
<path opacity="0.44" d="M30.9004 53C35.5948 53 39.4004 49.1944 39.4004 44.5C39.4004 39.8056 35.5948 36 30.9004 36C26.206 36 22.4004 39.8056 22.4004 44.5C22.4004 49.1944 26.206 53 30.9004 53Z" fill="white"/>
<path opacity="0.44" d="M27.5 42.8C32.1944 42.8 36 38.9945 36 34.3C36 29.6056 32.1944 25.8 27.5 25.8C22.8056 25.8 19 29.6056 19 34.3C19 38.9945 22.8056 42.8 27.5 42.8Z" fill="white"/>
<path opacity="0.44" d="M44.5 42.8C49.1944 42.8 53 38.9945 53 34.3C53 29.6056 49.1944 25.8 44.5 25.8C39.8056 25.8 36 29.6056 36 34.3C36 38.9945 39.8056 42.8 44.5 42.8Z" fill="white"/>
<path opacity="0.44" d="M36 36C40.6944 36 44.5 32.1944 44.5 27.5C44.5 22.8056 40.6944 19 36 19C31.3056 19 27.5 22.8056 27.5 27.5C27.5 32.1944 31.3056 36 36 36Z" fill="white"/>
</svg>
