<svg width="72" height="72" viewBox="0 0 72 72" fill="none" xmlns="http://www.w3.org/2000/svg">
<rect width="72" height="72" rx="8" fill="#5661E8"/>
<g clip-path="url(#clip0)">
<path opacity="0.44" d="M31.4996 33.9C27.8996 33.9 25.0996 31 25.0996 27.5C25.0996 24 27.8996 21 31.4996 21C35.0996 21 37.8996 23.9 37.8996 27.4C37.8996 30.9 35.0996 33.9 31.4996 33.9ZM45.9996 38.7C43.2996 38.7 41.1996 36.5 41.1996 33.9C41.1996 31.2 43.3996 29.1 45.9996 29.1C48.5996 29.1 50.7996 31.3 50.7996 33.9C50.7996 36.6 48.6996 38.7 45.9996 38.7Z" fill="white"/>
<path d="M17 48.7001C17.6 41.0001 23.9 37.1001 31.5 37.1001C39.2 37.1001 45.6 40.8001 46 48.7001C46 49.0001 46 50.0001 44.8 50.0001C38.8 50.0001 30 50.0001 18.2 50.0001C17.8 50.0001 17 49.1001 17 48.7001ZM45.4 40.3001C50.9 40.4001 55.4 43.1001 55.7 49.0001C55.7 49.2001 55.7 50.0001 54.8 50.0001H48.6C48.6 46.4001 47.4 43.0001 45.4 40.3001Z" fill="white"/>
</g>
<defs>
<clipPath id="clip0">
<rect width="38.7" height="29" fill="white" transform="translate(17 21)"/>
</clipPath>
</defs>
</svg>
