<svg width="39" height="39" viewBox="0 0 39 39" fill="none" xmlns="http://www.w3.org/2000/svg">
<path fill-rule="evenodd" clip-rule="evenodd" d="M39 19.5C39 30.2696 30.2696 39 19.5 39C8.73045 39 0 30.2696 0 19.5C0 8.73045 8.73045 0 19.5 0C30.2696 0 39 8.73045 39 19.5ZM28.2485 14.2356H29V12H21.8938L19.5322 20.7825H19.4676L17.1275 12H10V14.2355H10.7299C11.0305 14.2355 11.425 14.6414 11.425 14.9012V24.3196C11.425 24.5797 11.0305 24.9343 10.7299 24.9343H10V27.1699H15.7V24.9343H14.275V15.034H14.3581L17.6429 27.1699H20.2192L23.5469 15.034H23.6167V24.9343H22.1917V27.1699H29V24.9343H28.2485C27.9695 24.9343 27.575 24.5797 27.575 24.3196V14.9013C27.575 14.6415 27.9695 14.2356 28.2485 14.2356Z" fill="white"/>
</svg>
