<svg width="22" height="19" viewBox="0 0 22 19" fill="none" xmlns="http://www.w3.org/2000/svg">
<path fill-rule="evenodd" clip-rule="evenodd" d="M8.00512 12.0188C7.90237 12.0691 7.78801 12.095 7.67365 12.0934C7.40681 12.0934 7.15986 11.9491 7.03556 11.7189L6.98584 11.6201L4.97047 7.32961C4.94892 7.28422 4.94064 7.23236 4.94395 7.18211C4.93898 6.99247 5.09146 6.83686 5.28371 6.832H5.30194C5.38481 6.83362 5.46437 6.85955 5.53232 6.90656L7.90237 8.55175C8.08799 8.66197 8.29848 8.72356 8.51559 8.72681C8.64653 8.72681 8.7758 8.70087 8.89679 8.65225L20.0128 3.81393C17.9974 1.49607 14.7092 0 11.0116 0C4.92075 0 0 4.01491 0 8.97642C0 11.6687 1.47838 14.113 3.7987 15.7598C4.07051 15.9284 4.17659 16.2655 4.05228 16.5573C3.87494 17.2316 3.56833 18.3289 3.56833 18.3775C3.5385 18.4667 3.52027 18.5574 3.51861 18.6514C3.51364 18.8395 3.66611 18.9967 3.85837 18.9999H3.87494C3.94953 19.0015 4.02245 18.9756 4.0788 18.9254L6.47537 17.5525C6.6527 17.4471 6.8549 17.3872 7.06208 17.3791C7.17312 17.3839 7.28416 17.3985 7.39189 17.4293C8.56034 17.7616 9.77023 17.9285 10.9867 17.9285C17.0544 17.9285 22 13.9136 22 8.95211C21.9901 7.47711 21.5591 6.03453 20.7503 4.78807L8.08136 11.9686L8.00512 12.0188Z" fill="#2DC100"/>
</svg>
