<svg width="167" height="35" viewBox="0 0 167 35" fill="none" xmlns="http://www.w3.org/2000/svg">
<path fill-rule="evenodd" clip-rule="evenodd" d="M7.824 5.61599C8.84801 5.61599 9.752 5.86399 10.536 6.35999C11.32 6.85599 11.932 7.56399 12.372 8.48399C12.812 9.404 13.032 10.472 13.032 11.688C13.032 12.904 12.812 13.984 12.372 14.928C11.932 15.872 11.316 16.604 10.524 17.124C9.732 17.644 8.832 17.904 7.824 17.904C7.04 17.904 6.324 17.744 5.676 17.424C5.028 17.104 4.536 16.664 4.2 16.104V17.712H0V0.791992H4.272V7.29599C4.624 6.78399 5.116 6.37599 5.748 6.07199C6.38 5.76799 7.072 5.61599 7.824 5.61599ZM6.50395 14.712C7.23995 14.712 7.80795 14.452 8.20795 13.932C8.60795 13.412 8.80795 12.664 8.80795 11.688C8.80795 10.76 8.61195 10.048 8.21995 9.55201C7.82795 9.05601 7.26396 8.80801 6.52795 8.80801C5.77595 8.80801 5.19995 9.06001 4.79995 9.56401C4.39995 10.068 4.19995 10.792 4.19995 11.736C4.19995 12.696 4.39995 13.432 4.79995 13.944C5.19995 14.456 5.76795 14.712 6.50395 14.712ZM15 17.712V5.90399H19.272V17.712H15ZM14.9041 0H19.3681V3.864H14.9041V0ZM27.696 17.904C26.4 17.904 25.26 17.652 24.276 17.148C23.292 16.644 22.532 15.928 21.996 15C21.46 14.072 21.192 12.984 21.192 11.736C21.192 10.488 21.46 9.404 21.996 8.484C22.532 7.56399 23.288 6.856 24.264 6.36C25.24 5.864 26.384 5.616 27.696 5.616C29.008 5.616 30.152 5.864 31.128 6.36C32.104 6.856 32.86 7.56399 33.396 8.484C33.932 9.404 34.2 10.488 34.2 11.736C34.2 12.984 33.932 14.072 33.396 15C32.86 15.928 32.104 16.644 31.128 17.148C30.152 17.652 29.008 17.904 27.696 17.904ZM27.696 14.712C29.216 14.712 29.976 13.72 29.976 11.736C29.976 9.752 29.216 8.76001 27.696 8.76001C26.176 8.76001 25.416 9.752 25.416 11.736C25.416 13.72 26.176 14.712 27.696 14.712ZM40.896 17.904C39.76 17.904 38.712 17.784 37.752 17.544C36.792 17.304 35.984 16.952 35.328 16.488L36.408 13.584C37.048 14 37.776 14.332 38.592 14.58C39.408 14.828 40.192 14.952 40.944 14.952C41.408 14.952 41.768 14.884 42.024 14.748C42.28 14.612 42.408 14.424 42.408 14.184C42.408 13.976 42.316 13.816 42.132 13.704C41.948 13.592 41.576 13.472 41.016 13.344L39.12 12.912C37.92 12.64 37.056 12.24 36.528 11.712C36 11.184 35.736 10.432 35.736 9.456C35.736 8.70399 35.96 8.036 36.408 7.452C36.856 6.86799 37.484 6.416 38.292 6.096C39.1 5.776 40.016 5.616 41.04 5.616C41.888 5.616 42.732 5.74 43.572 5.988C44.412 6.236 45.176 6.58399 45.864 7.032L44.76 9.816C44.12 9.41599 43.476 9.108 42.828 8.892C42.18 8.676 41.568 8.568 40.992 8.568C40.528 8.568 40.168 8.64 39.912 8.784C39.656 8.928 39.528 9.136 39.528 9.408C39.528 9.568 39.608 9.7 39.768 9.804C39.928 9.908 40.208 10.008 40.608 10.104L42.6 10.56C43.848 10.832 44.752 11.252 45.312 11.82C45.872 12.388 46.152 13.16 46.152 14.136C46.152 15.304 45.684 16.224 44.748 16.896C43.812 17.568 42.528 17.904 40.896 17.904ZM55.7281 5.616C56.7361 5.616 57.636 5.87599 58.4281 6.396C59.2201 6.916 59.8361 7.64799 60.2761 8.592C60.7161 9.536 60.9361 10.616 60.9361 11.832C60.9361 13.048 60.7161 14.116 60.2761 15.036C59.8361 15.956 59.2241 16.664 58.4401 17.16C57.656 17.656 56.7521 17.904 55.7281 17.904C54.976 17.904 54.2841 17.752 53.6521 17.448C53.0201 17.144 52.5281 16.736 52.1761 16.224V22.032H47.9041V5.904H52.1041V7.416C52.4401 6.85599 52.932 6.416 53.5801 6.096C54.2281 5.776 54.944 5.616 55.7281 5.616ZM54.432 14.712C55.168 14.712 55.732 14.464 56.124 13.968C56.516 13.472 56.712 12.76 56.712 11.832C56.712 10.856 56.512 10.108 56.112 9.58801C55.712 9.06801 55.144 8.80801 54.408 8.80801C53.672 8.80801 53.104 9.06401 52.704 9.57601C52.304 10.088 52.104 10.824 52.104 11.784C52.104 12.728 52.304 13.452 52.704 13.956C53.104 14.46 53.68 14.712 54.432 14.712ZM70.8481 5.61599C72.2561 5.61599 73.304 6.03599 73.9921 6.87599C74.6801 7.716 75.0241 8.99198 75.0241 10.704V17.712H70.7521V10.896C70.7521 10.192 70.6281 9.67999 70.3801 9.35999C70.132 9.03999 69.7601 8.87999 69.2641 8.87999C68.624 8.87999 68.1161 9.08399 67.7401 9.49199C67.3641 9.89999 67.1761 10.448 67.1761 11.136V17.712H62.9041V0.791992H67.1761V7.31999C67.6081 6.75999 68.136 6.33599 68.7601 6.04799C69.3841 5.75999 70.08 5.61599 70.8481 5.61599ZM88.3199 12.624H81.0239C81.1519 13.392 81.4319 13.944 81.8639 14.28C82.296 14.616 82.9119 14.784 83.7119 14.784C84.2879 14.784 84.8719 14.688 85.464 14.496C86.056 14.304 86.5839 14.04 87.048 13.704L88.1279 16.512C87.5359 16.944 86.824 17.284 85.992 17.532C85.1599 17.78 84.3279 17.904 83.4959 17.904C82.1359 17.904 80.96 17.656 79.9679 17.16C78.9759 16.664 78.212 15.952 77.6759 15.024C77.1399 14.096 76.8719 13.008 76.8719 11.76C76.8719 10.576 77.1239 9.516 77.6279 8.58C78.132 7.64399 78.8359 6.916 79.7399 6.396C80.644 5.87599 81.6639 5.616 82.7999 5.616C84.496 5.616 85.8399 6.15599 86.8319 7.236C87.824 8.316 88.3199 9.79199 88.3199 11.664V12.624ZM82.92 8.496C81.7839 8.496 81.136 9.2 80.976 10.608H84.7439C84.6479 9.2 84.04 8.496 82.92 8.496ZM99.36 9.09599L97.032 9.33599C96.104 9.43199 95.456 9.67999 95.088 10.08C94.72 10.48 94.536 11.048 94.536 11.784V17.712H90.264V5.90399H94.32V7.94399C94.592 7.22399 95.04 6.67599 95.664 6.29999C96.288 5.92399 97.048 5.71199 97.944 5.66399L99.12 5.56799L99.36 9.09599ZM110.976 12.624H103.68C103.808 13.392 104.088 13.944 104.52 14.28C104.952 14.616 105.568 14.784 106.368 14.784C106.944 14.784 107.528 14.688 108.12 14.496C108.712 14.304 109.24 14.04 109.704 13.704L110.784 16.512C110.192 16.944 109.48 17.284 108.648 17.532C107.816 17.78 106.984 17.904 106.152 17.904C104.792 17.904 103.616 17.656 102.624 17.16C101.632 16.664 100.868 15.952 100.332 15.024C99.796 14.096 99.528 13.008 99.528 11.76C99.528 10.576 99.78 9.516 100.284 8.58C100.788 7.64399 101.492 6.916 102.396 6.396C103.3 5.87599 104.32 5.616 105.456 5.616C107.152 5.616 108.496 6.15599 109.488 7.236C110.48 8.316 110.976 9.79199 110.976 11.664V12.624ZM105.576 8.496C104.44 8.496 103.792 9.2 103.632 10.608H107.4C107.304 9.2 106.696 8.496 105.576 8.496Z" transform="translate(55.248 12.288)" fill="white"/>
<path fill-rule="evenodd" clip-rule="evenodd" d="M8 4C8 6.20912 6.20923 8 4 8C1.79098 8 0 6.20912 0 4C0 1.79088 1.79098 0 4 0C6.20923 0 8 1.79088 8 4Z" transform="translate(0 11)" fill="white"/>
<path fill-rule="evenodd" clip-rule="evenodd" d="M4 8C1.79098 8 0 6.20912 0 4C0 1.79088 1.79098 0 4 0C6.20923 0 8 1.79088 8 4C8 6.20912 6.20923 8 4 8Z" transform="translate(22 11)" fill="white"/>
<path fill-rule="evenodd" clip-rule="evenodd" d="M21.1363 10.8687C23.4102 14.2655 22.5 18.8625 19.1032 21.1364C15.7065 23.4102 11.1095 22.5 8.83558 19.1032C6.56158 15.7064 7.47195 11.1095 10.8687 8.8356C14.2656 6.5617 18.8625 7.47196 21.1363 10.8687ZM2.53405 23.3217C7.13769 30.1986 16.4446 32.0415 23.3215 27.4379C30.1985 22.8343 32.0415 13.5273 27.4379 6.65041C22.8341 -0.226683 13.5274 -2.06956 6.65038 2.53408C-0.226602 7.13772 -2.06958 16.4446 2.53405 23.3217Z" transform="translate(11.0211 0.0280151)" fill="white"/>
<mask id="mask0" mask-type="alpha" maskUnits="userSpaceOnUse" x="0" y="22" width="28" height="8">
<path fill-rule="evenodd" clip-rule="evenodd" d="M0 0H27.9423V7.8973H0V0Z" transform="translate(0 22.0725)" fill="white"/>
</mask>
<g mask="url(#mask0)">
<path fill-rule="evenodd" clip-rule="evenodd" d="M27.9423 7.8973L0 7.61293L0.0177509 7.56632C1.8555 2.72088 5.99253 -0.110911 11.0664 0.0033293L17.3648 0.145196L27.9423 7.8973Z" transform="translate(0 22.0725)" fill="white"/>
</g>
</svg>
