<svg width="161" height="38" viewBox="0 0 161 38" fill="none" xmlns="http://www.w3.org/2000/svg">
<path d="M9.072 11.904C10.096 11.904 11 12.152 11.784 12.648C12.568 13.144 13.176 13.856 13.608 14.784C14.056 15.696 14.28 16.76 14.28 17.976C14.28 19.192 14.056 20.272 13.608 21.216C13.176 22.16 12.56 22.896 11.76 23.424C10.976 23.936 10.08 24.192 9.072 24.192C8.288 24.192 7.568 24.032 6.912 23.712C6.272 23.392 5.784 22.952 5.448 22.392V24H1.248V7.08H5.52V13.584C5.872 13.072 6.36 12.664 6.984 12.36C7.624 12.056 8.32 11.904 9.072 11.904ZM7.752 21C8.488 21 9.056 20.744 9.456 20.232C9.856 19.704 10.056 18.952 10.056 17.976C10.056 17.048 9.856 16.336 9.456 15.84C9.072 15.344 8.512 15.096 7.776 15.096C7.024 15.096 6.448 15.352 6.048 15.864C5.648 16.36 5.448 17.08 5.448 18.024C5.448 18.984 5.648 19.72 6.048 20.232C6.448 20.744 7.016 21 7.752 21ZM16.248 24V12.192H20.52V24H16.248ZM16.152 6.288H20.616V10.152H16.152V6.288ZM28.95 24.192C27.654 24.192 26.51 23.944 25.518 23.448C24.542 22.936 23.782 22.216 23.238 21.288C22.71 20.36 22.446 19.272 22.446 18.024C22.446 16.776 22.71 15.696 23.238 14.784C23.782 13.856 24.542 13.144 25.518 12.648C26.494 12.152 27.638 11.904 28.95 11.904C30.262 11.904 31.406 12.152 32.382 12.648C33.358 13.144 34.11 13.856 34.638 14.784C35.182 15.696 35.454 16.776 35.454 18.024C35.454 19.272 35.182 20.36 34.638 21.288C34.11 22.216 33.358 22.936 32.382 23.448C31.406 23.944 30.262 24.192 28.95 24.192ZM28.95 21C30.47 21 31.23 20.008 31.23 18.024C31.23 16.04 30.47 15.048 28.95 15.048C27.43 15.048 26.67 16.04 26.67 18.024C26.67 20.008 27.43 21 28.95 21ZM42.1406 24.192C41.0046 24.192 39.9566 24.072 38.9966 23.832C38.0366 23.592 37.2286 23.24 36.5726 22.776L37.6526 19.872C38.2926 20.288 39.0206 20.624 39.8366 20.88C40.6526 21.12 41.4366 21.24 42.1886 21.24C42.6526 21.24 43.0126 21.176 43.2686 21.048C43.5246 20.904 43.6526 20.712 43.6526 20.472C43.6526 20.264 43.5566 20.104 43.3646 19.992C43.1886 19.88 42.8206 19.76 42.2606 19.632L40.3646 19.2C39.1646 18.928 38.3006 18.528 37.7726 18C37.2446 17.472 36.9806 16.72 36.9806 15.744C36.9806 14.992 37.2046 14.328 37.6526 13.752C38.1006 13.16 38.7246 12.704 39.5246 12.384C40.3406 12.064 41.2606 11.904 42.2846 11.904C43.1326 11.904 43.9726 12.032 44.8046 12.288C45.6526 12.528 46.4206 12.872 47.1086 13.32L46.0046 16.104C45.3646 15.704 44.7166 15.4 44.0606 15.192C43.4206 14.968 42.8126 14.856 42.2366 14.856C41.7726 14.856 41.4126 14.928 41.1566 15.072C40.9006 15.216 40.7726 15.424 40.7726 15.696C40.7726 15.856 40.8526 15.992 41.0126 16.104C41.1726 16.2 41.4526 16.296 41.8526 16.392L43.8446 16.848C45.0926 17.12 45.9966 17.544 46.5566 18.12C47.1166 18.68 47.3966 19.448 47.3966 20.424C47.3966 21.592 46.9246 22.512 45.9806 23.184C45.0526 23.856 43.7726 24.192 42.1406 24.192ZM56.9782 11.904C57.9863 11.904 58.8823 12.168 59.6663 12.696C60.4663 13.208 61.0823 13.936 61.5142 14.88C61.9623 15.824 62.1863 16.904 62.1863 18.12C62.1863 19.336 61.9623 20.408 61.5142 21.336C61.0823 22.248 60.4743 22.952 59.6902 23.448C58.9062 23.944 58.0022 24.192 56.9782 24.192C56.2262 24.192 55.5303 24.04 54.8903 23.736C54.2663 23.432 53.7783 23.024 53.4263 22.512V28.32H49.1543V12.192H53.3542V13.704C53.6902 13.144 54.1782 12.704 54.8182 12.384C55.4742 12.064 56.1942 11.904 56.9782 11.904ZM55.6823 21C56.4183 21 56.9783 20.752 57.3622 20.256C57.7622 19.76 57.9622 19.048 57.9622 18.12C57.9622 17.144 57.7622 16.4 57.3622 15.888C56.9622 15.36 56.3942 15.096 55.6583 15.096C54.9223 15.096 54.3543 15.352 53.9543 15.864C53.5543 16.376 53.3542 17.112 53.3542 18.072C53.3542 19.016 53.5543 19.744 53.9543 20.256C54.3543 20.752 54.9303 21 55.6823 21ZM72.0982 11.904C73.5062 11.904 74.5542 12.328 75.2422 13.176C75.9302 14.008 76.2742 15.28 76.2742 16.992V24H72.0023V17.184C72.0023 16.48 71.8743 15.968 71.6183 15.648C71.3782 15.328 71.0102 15.168 70.5143 15.168C69.8743 15.168 69.3623 15.376 68.9782 15.792C68.6102 16.192 68.4263 16.736 68.4263 17.424V24H64.1543V7.08H68.4263V13.608C68.8583 13.048 69.3863 12.624 70.0103 12.336C70.6343 12.048 71.3303 11.904 72.0982 11.904ZM89.5815 18.912H82.2855C82.4135 19.68 82.6935 20.232 83.1255 20.568C83.5575 20.904 84.1735 21.072 84.9735 21.072C85.5495 21.072 86.1335 20.976 86.7255 20.784C87.3175 20.592 87.8455 20.328 88.3095 19.992L89.3895 22.8C88.7975 23.232 88.0855 23.576 87.2535 23.832C86.4215 24.072 85.5895 24.192 84.7575 24.192C83.3975 24.192 82.2215 23.944 81.2295 23.448C80.2375 22.952 79.4695 22.24 78.9255 21.312C78.3975 20.384 78.1335 19.296 78.1335 18.048C78.1335 16.864 78.3815 15.808 78.8775 14.88C79.3895 13.936 80.0935 13.208 80.9895 12.696C81.9015 12.168 82.9255 11.904 84.0615 11.904C85.7575 11.904 87.1015 12.448 88.0935 13.536C89.0855 14.608 89.5815 16.08 89.5815 17.952V18.912ZM84.1815 14.784C83.0455 14.784 82.3975 15.488 82.2375 16.896H86.0055C85.9095 15.488 85.3015 14.784 84.1815 14.784ZM100.625 15.384L98.2972 15.624C97.3692 15.72 96.7212 15.968 96.3532 16.368C95.9852 16.768 95.8013 17.336 95.8013 18.072V24H91.5293V12.192H95.5853V14.232C95.8573 13.512 96.3053 12.968 96.9293 12.6C97.5533 12.216 98.3133 12 99.2093 11.952L100.385 11.856L100.625 15.384ZM112.246 18.912H104.95C105.078 19.68 105.358 20.232 105.79 20.568C106.222 20.904 106.838 21.072 107.638 21.072C108.214 21.072 108.798 20.976 109.39 20.784C109.982 20.592 110.51 20.328 110.974 19.992L112.054 22.8C111.462 23.232 110.75 23.576 109.918 23.832C109.086 24.072 108.254 24.192 107.422 24.192C106.062 24.192 104.886 23.944 103.894 23.448C102.902 22.952 102.134 22.24 101.59 21.312C101.062 20.384 100.798 19.296 100.798 18.048C100.798 16.864 101.046 15.808 101.542 14.88C102.054 13.936 102.758 13.208 103.654 12.696C104.566 12.168 105.59 11.904 106.726 11.904C108.422 11.904 109.766 12.448 110.758 13.536C111.75 14.608 112.246 16.08 112.246 17.952V18.912ZM106.846 14.784C105.71 14.784 105.062 15.488 104.902 16.896H108.67C108.574 15.488 107.966 14.784 106.846 14.784Z" transform="translate(48 9)" fill="#6AA02F"/>
<path fill-rule="evenodd" clip-rule="evenodd" d="M23.6099 11.9668C26.1499 15.7067 25.133 20.7681 21.3388 23.2717C17.5446 25.7753 12.4096 24.7731 9.86958 21.0332C7.32959 17.2933 8.34636 12.2318 12.1408 9.72823C15.935 7.2246 21.0698 8.22682 23.6099 11.9668ZM2.83069 25.6777C7.97306 33.2495 18.3691 35.2787 26.0508 30.2099C33.7326 25.1412 35.7912 14.8941 30.6489 7.3223C25.5064 -0.249584 15.1104 -2.27864 7.4286 2.7901C-0.25315 7.85884 -2.31181 18.106 2.83069 25.6777Z" transform="translate(5.52051)" fill="#6AA02F"/>
<path fill-rule="evenodd" clip-rule="evenodd" d="M23.1918 8L0 7.71193L0.0146454 7.66471C1.54005 2.75626 4.97374 -0.112353 9.18496 0.00337259L14.4125 0.147084L23.1918 8Z" transform="translate(0 25)" fill="#6AA02F"/>
<path fill-rule="evenodd" clip-rule="evenodd" d="M3.5 7C5.433 7 7 5.433 7 3.5C7 1.567 5.433 0 3.5 0C1.567 0 0 1.567 0 3.5C0 5.433 1.567 7 3.5 7Z" transform="translate(19 13)" fill="#6AA02F"/>
</svg>
